<?xml version="1.0" encoding="UTF-8"?>
<svg id="Layer_2" data-name="Layer 2" xmlns="http://www.w3.org/2000/svg" viewBox="0 0 380 247">
  <g id="Layer_1-2" data-name="Layer 1">
    <path d="M326.49,.12c-24.08,1.64-43.78,20.68-46.23,44.69-.39,3.86-.34,7.64,.11,11.3,1.28,10.46,.8,21.06-.87,31.47l-1.09,6.81c-2.8,17.49-13.16,32.86-28.32,42.02l-.05,.03s-.08,.05-.13,.08c-7.93,4.77-17.9,4.77-25.83,0-.04-.03-.08-.05-.13-.08l-.05-.03c-15.16-9.14-25.52-24.5-28.32-41.98l-1.09-6.81c-1.67-10.42-2.15-21.04-.87-31.51,.45-3.66,.5-7.43,.11-11.29C191.29,20.8,171.59,1.76,147.51,.12c-1.35-.09-2.68-.11-4.01-.1-1.33-.01-2.66,0-4.01,.1-24.08,1.64-43.78,20.68-46.23,44.69-.39,3.86-.34,7.64,.11,11.29,1.28,10.47,.8,21.09-.87,31.51l-1.09,6.82c-2.8,17.48-13.15,32.83-28.31,41.97l-.06,.03c-8.79,5.3-18.1,9.76-27.9,12.81C14.31,155.73-.68,175.45,.02,198.56c.82,26.75,23.04,48.34,49.8,48.44s50.18-22.33,50.18-50v-.13c-.01-11.16,1.18-22.28,3.55-33.18h0c4.17-19.17,14.98-36.24,30.53-48.2h0c5.56-4.27,13.29-4.27,18.85,0h.01c15.54,11.96,26.35,29.03,30.51,48.18h0c2.37,10.91,3.56,22.05,3.55,33.22v.12c0,.19,.01,.38,.01,.57,0,.33,0,.66,0,.99,0,.17,.02,.35,.03,.52,.02,.41,.04,.82,.07,1.23,.03,.42,.06,.84,.1,1.26,.04,.45,.09,.9,.14,1.34,.04,.35,.08,.69,.13,1.04,.07,.54,.16,1.07,.25,1.6,.04,.23,.08,.45,.12,.68,.12,.67,.26,1.33,.41,1.98,.02,.07,.03,.13,.05,.2,4.91,21.03,23.08,36.95,45.22,38.46,.3,.02,.59,.05,.89,.06,.41,.02,.82,.02,1.22,.03,.39,.01,.77,.03,1.16,.03,.06,0,.12,0,.18,0s.12,0,.18,0c.39,0,.78-.02,1.16-.03,.41-.01,.82-.01,1.22-.03,.3-.02,.59-.04,.89-.06,22.14-1.51,40.31-17.43,45.22-38.46,.02-.07,.03-.13,.05-.2,.15-.66,.29-1.32,.41-1.98,.04-.22,.08-.45,.12-.68,.09-.53,.18-1.07,.25-1.6,.05-.34,.09-.69,.13-1.04,.05-.45,.1-.89,.14-1.34,.04-.42,.07-.84,.1-1.26,.03-.41,.05-.82,.07-1.23,0-.17,.02-.35,.03-.52,.01-.33,0-.66,0-.99,0-.19,.01-.38,.01-.57v-.13c-.01-11.16,1.18-22.28,3.55-33.19h0c4.17-19.17,14.98-36.24,30.53-48.2l10.76-8.28c6.28-4.83,13.13-8.84,20.24-12.35,16.54-8.15,27.93-25.17,27.93-44.86,0-28.77-24.31-51.87-53.51-49.88Z"/>
  </g>
</svg>